<!DOCTYPE svg PUBLIC "-//W3C//DTD SVG 1.1//EN" "http://www.w3.org/Graphics/SVG/1.1/DTD/svg11.dtd">
<!-- Uploaded to: SVG Repo, www.svgrepo.com, Transformed by: SVG Repo Mixer Tools -->
<svg width="64px" height="64px" viewBox="0 0 24.00 24.00" fill="none" xmlns="http://www.w3.org/2000/svg">
<g id="SVGRepo_bgCarrier" stroke-width="0"/>
<g id="SVGRepo_tracerCarrier" stroke-linecap="round" stroke-linejoin="round" stroke="#CCCCCC" stroke-width="4.8"> <path d="M19 7.90637V18C19 19.1046 18.1046 20 17 20H7C5.89543 20 5 19.1046 5 18V7.90637M2 10.0001L10.8531 3.80297C11.5417 3.32092 12.4583 3.32092 13.1469 3.80297L22 10.0001" stroke="#adadad8e" stroke-width="2.4" stroke-linecap="round" stroke-linejoin="round"/> </g>
<g id="SVGRepo_iconCarrier"> <path d="M19 7.90637V18C19 19.1046 18.1046 20 17 20H7C5.89543 20 5 19.1046 5 18V7.90637M2 10.0001L10.8531 3.80297C11.5417 3.32092 12.4583 3.32092 13.1469 3.80297L22 10.0001" stroke="#adadad8e" stroke-width="2.4" stroke-linecap="round" stroke-linejoin="round"/> </g>
</svg>